<svg xmlns="http://www.w3.org/2000/svg" viewBox="0 0 3000 3000" width="3000" height="3000"><g transform="translate(412.8 165.6) rotate(0.0 983.4 1299.0) scale(1.2254030004554453 1.2250510202156994)"><svg width="1605.023" height="2120.728" viewBox="0 0 1605.023 2120.728"><path d="M17.501 1426.206c1.317 1.157 1.405 2.689 1.231 4.15-1.927 16.201 1.446 31.982 3.7 47.855.468 3.294 1.218 6.652.996 9.922-.841 12.368 3.979 23.094 9.179 33.762 2.769 5.682 6.804 9.571 13.092 11.676 15.015 5.028 29.005 12.495 41.949 21.434 24.364 16.828 50.954 29.159 78.2 40.161 39.002 15.749 78.218 30.969 117.383 46.313 45.583 17.859 92.669 29.843 141.167 36.622 26.378 3.687 52.545 8.85 79.063 11.643 20.205 2.128 40.475 3.124 60.776 3.073 8.194-.021 15.16 2.161 22.02 6.748 20.641 13.801 41.698 26.971 63.105 39.569 7.323 4.309 14.853 8.141 22.926 10.879 13.473 4.568 26.858 9.374 39.875 15.152 6.142 2.726 12.72 3.59 19.842 4.576-.264-2.958-2.588-3.399-4.058-4.391-8.819-5.949-18.142-10.929-28.253-14.364-1.997-.679-3.97-1.497-5.834-2.479-1.663-.875-3.231-2.343-2.268-4.324.698-1.437 2.624-1.263 4.106-.859 2.625.714 5.328 1.303 7.797 2.398 13.271 5.885 26.868 11.172 38.505 20.18 4.406 3.41 9.611 4.793 14.83 6.483 16.545 5.357 33.59 7.54 50.78 9.118 5.113.47 10.182.989 14.786-2.864-3.741-2.264-7.729-2.068-11.587-2.374-8.153-.648-16.325-1.088-24.466-1.867-7.92-.758-15.542-2.558-21.881-7.854-20.483-17.113-41.963-32.862-64.514-47.149-1.22-.773-2.704-1.405-3.243-3.706 3.467-.877 6.167.992 8.908 2.296 17.034 8.098 32.329 18.994 47.699 29.763.742.52 1.461 1.097 2.095 1.742 10.678 10.867 23.8 14.32 38.752 14.28 12.06-.032 24.163 1.453 36.176 2.871 10.204 1.204 19.731.296 29.166-4.2 9.297-4.43 18.69-8.598 27.253-14.375 4.297-2.899 8.918-5.759 7.907-12.055-.679-4.231-6.088-7.093-13.314-7.206-7.308-.115-14.607.348-21.437 3.158-8.009 3.295-15.776 3.162-23.825.065-9.084-3.496-18.719-4.995-28.29-6.408-8.065-1.191-15.45-4.085-21.324-9.38-17.31-15.605-34.659-31.185-50.913-47.929-5.514-5.68-7.19-12.346-6.867-19.941.189-4.44 1.411-8.184 4.691-11.388 7.809-7.625 15.053-15.779 21.877-24.304 5.232-6.535 12.517-9.232 20.391-10.873 8.59-1.79 17.248-3.353 25.713-5.622 13.572-3.637 22.726-13.344 30.848-24.057 2.174-2.868 3.506-6.613 1.103-10.195-2.402-3.58-6.046-3.485-9.798-2.759-14.685 2.839-29.515 2.893-44.368 2.143-7.415-.374-14.454.744-21.125 4.122-8.641 4.375-17.436 8.454-25.988 12.994-30.827 16.368-62.984 20.439-96.71 10.916-13.709-3.871-27.066-.28-40.378 2.287-12.468 2.404-24.586 6.406-37.204 8.3-5.632.845-10.827.405-15.903-1.961-4.935-2.301-10.025-4.361-14.699-7.116-20.867-12.303-41.526-24.948-62.142-37.674-23.718-14.641-46.663-30.431-70.081-45.507-34.133-21.974-66.312-46.725-98.177-71.855-6.409-5.055-12.187-12.233-19.473-14.471-6.897-2.118-15.409.835-23.182 1.795-12.62 1.559-25.209 3.359-37.824 4.963-7.296.928-11.442-.311-11.772-3.734-.527-5.47 4.235-6.831 7.86-8.739 4.216-2.22 8.649-4.028 13.024-6.032-1.345-3.178-3.819-2.223-5.675-2.272-15.717-.414-31.467-1.877-47.084 1.505-2.129.461-5.22 1.38-6.122-1.949-.712-2.628 1.03-4.671 3.102-6.075 2.538-1.72 5.478-2.468 8.508-2.962 17.491-2.853 35.022-2.119 52.541-.508 6.584.605 13.117 1.775 20.116 2.75-.303-2.954-2.405-3.558-4.009-4.509-23.707-14.052-47.263-28.369-71.19-42.036-31.192-17.816-64.54-29.026-100.713-30.63-12.425-.551-24.868-.583-37.06 2.366-4.093.99-8.213 2.274-11.984 4.113-11.868 5.787-17.354 15.523-16.687 28.69.091 1.8.496 3.588.814 5.371.363 2.039 1.597 4.775-.66 5.762-3.085 1.349-4.892-1.493-6.178-3.812-3.736-6.741-3.679-14.029-1.968-21.218 3.054-12.83 11.734-20.871 23.46-25.924 12.156-5.238 25.071-6.85 38.143-7.328 38.394-1.402 74.532 7.511 108.686 24.634 12.438 6.236 24.5 13.262 36.501 20.324 32.887 19.352 65.641 38.933 98.483 58.362 2.824 1.671 5.391 3.937 8.803 4.527 1.484-8.893.782-10.729-6.287-14.686-4.444-2.488-5.972-6.591-6.923-11.154-2.782-13.352-4.589-26.86-6.461-40.358-4.495-32.402-9.021-64.801-10.197-97.549-.413-11.514-.328-23.03.473-34.52.272-3.898.94-7.843 2.04-11.586 1-3.401 3.667-5.539 7.392-5.814 3.657-.269 6.472 1.273 8.358 4.4 2.067 3.426 2.885 7.288 3.771 11.127 7.378 31.943 11.447 64.375 14.365 96.98.428 4.782.415 9.644 3.328 14.551.723-2.94 1.471-5.874 2.164-8.821 7.448-31.662 10.467-63.91 12.831-96.253.463-6.336 1.296-12.656 2.237-18.942.343-2.291.907-5.466 3.752-5.539 3.212-.083 4.248 2.997 4.758 5.721 1.064 5.68 1.299 11.442 1.006 17.203-1.414 27.814-1.319 55.752-6.81 83.235-.34 1.703-1.031 3.543.841 5.512 3.523-.58 3.897-3.979 4.94-6.507 4.689-11.355 5.45-23.557 7.203-35.513 7.392-50.407 10.834-101.166 13.211-152.014.355-7.586 1.288-15.097 4.077-22.237.533-1.364 1.322-2.94 3.149-2.705 1.997.257 1.977 2.078 1.927 3.517a1377.76 1377.76 0 0 1-1.009 23.608c-1.372 26.32-2.845 52.649-2.809 79.003.033 24.053-3.83 47.641-6.7 71.39-2.63 21.757-7.017 43.002-14.141 63.707-2.752 7.997-2.693 8.166-11.199 8.182-2.04.004-2.652.779-3.108 2.276-.529 1.737-.972 3.5-1.441 5.254-1.644 6.141-2.518 12.623-5.071 18.359-6.953 15.619-5.312 31.204-1.305 46.99.745 2.933 1.337 5.907 1.952 8.871 2.087 10.06 1.508 12.062-5.891 19.688 10.649 10.295 21.825 20.052 33.958 28.439 37.122 25.665 75.283 49.774 113.038 74.492 22.78 14.913 48.008 24.281 73.349 33.475 4.598 1.668 9.404 2.286 14.305 1.859 11.162-.973 22.406-1.404 33.464-3.074 15.827-2.389 31.456-1.371 47.02 1.311 26.346 4.54 51.74 2.485 76.462-8.404 11.339-4.994 23.038-9.231 34.272-14.5 8.429-3.954 17.234-5.624 26.437-5.487 17.256.257 34.512.566 51.765.962 1.885.043 3.565.183 5.003-1.302 4.483-4.626 9.739-3.772 15.228-2.293 11.407 3.073 22.959 5.524 34.71 6.829 7.37.818 7.405.669 10.019-5.972 5.879-14.933 11.609-29.926 17.678-44.78 1.988-4.865 1.857-9.287-.151-14.007-3.448-8.106-7.525-15.895-12.128-23.365-4.172-6.769-4.247-13.039-1.473-20.609 17.418-47.515 33.78-95.36 39.5-146.061.338-2.994 1.164-5.936 1.82-8.89.296-1.334 1.373-2.159 2.581-2.169 1.302-.011 2.12 1.061 2.218 2.387.201 2.716.381 5.438.437 8.16.523 25.589-2.623 50.769-8.509 75.639-.76 3.209-1.447 6.436-2.277 10.145 2.817.595 4.13-1.235 5.328-2.644 16.549-19.452 35.701-36.175 54.887-52.896 6.837-5.959 13.16-12.547 19.395-19.152 10.599-11.227 23.684-18.545 37.317-25.344 15.171-7.565 30.279-15.202 45.822-22.013 16.723-7.328 33.697-13.431 51.94-15.677 7.182-.884 7.171-1.241 5.227-7.671-7.36-24.342-14.681-48.697-22.165-73.001-1.6-5.195-3.754-10.226-5.764-15.288-7.485-18.851-15.404-37.54-22.415-56.565-6.304-17.109-15.848-32.687-22.4-49.642-.216-.56-.572-1.066-.873-1.592-5.002-8.737-7.259-9.405-15.754-4.445-5.492 3.206-10.872 6.605-16.374 9.792-5.772 3.343-9.966 1.309-10.525-5.403-.298-3.576.035-7.318.757-10.848 6.394-31.283 7.112-63.164 10.151-94.798.368-3.834.648-7.658 2.208-11.52 7.018 28.58 8.476 57.125 4.451 86.565 4.751-1.088 6.904-4.317 9.992-5.991 6.71-3.636 10.119-2.811 12.599 4.123 5.831 16.301 13.627 31.691 21.132 47.235 7.512 15.558 13.837 31.615 18.77 48.197.776 2.61 1.513 5.255 2.583 7.749 14.478 33.745 24.202 69.121 35.735 103.876 2.86 8.618 5.95 17.164 9.111 25.678 2.625 7.07 2.241 13.506-2.628 19.617-3.58 4.494-6.49 9.527-10.125 13.973-3.072 3.757-3.529 7.445-1.691 11.766 4.266 10.03 8.099 20.26 12.728 30.117 7.51 15.99 12.815 32.596 16.075 49.945 3.143 16.726 8.7 32.802 14.892 48.578 4.51 11.491 4.288 22.308-.719 33.41-3.368 7.468-6.888 14.858-11.159 21.824-12.028 19.619-24.362 39.05-36.407 58.658-18.598 30.277-43.874 54.775-68.89 79.438-14.402 14.199-28.444 28.899-46.731 40.186 4.518 3.247 8.595 3.19 12.683 3.319 13.602.428 27.246-.783 40.806 1.542 9.278 1.591 18.432 3.344 27.062 7.318 16.001 7.368 32.928 12.136 49.743 17.127 10.317 3.063 19.004-1.994 26.872-7.694 10.547-7.641 21.006-15.338 32.043-22.308 12.201-7.704 24.716-10.568 38.912-6.892 17.557 4.547 35.819 6.137 52.978 12.437 4.188 1.538 8.263 1.144 12.363-.584 4.18-1.76 8.442-3.343 12.733-4.815 19.66-6.746 35.622.321 49.33 14.011 3.705 3.701 7.409 6.913 12.013 9.345 42.713 22.567 82.758 49.168 120.032 79.902 2.886 2.38 5.975 4.047 9.441 5.213 7.753 2.609 15.348 5.603 22.712 9.183 27.233 13.238 42.76 35.098 46.695 64.88 2.658 20.12 3.587 40.427 3.607 60.735.004 4.164 1.43 10.993-4.192 11.099-4.425.083-3.736-6.798-4.033-10.753-1.404-18.731-3.386-37.389-5.763-56.021-3.595-28.176-18.034-48.339-43.824-60.19-8.185-3.761-16.274-7.487-25.679-8.332-6.426-.577-12.623-4.013-18.858-6.345-17.06-6.383-34.761-10.441-52.418-14.68-3.517-.844-7.011-1.873-10.398-3.135-2.125-.791-3.419-2.691-3.082-5.048.388-2.719 2.189-4.267 4.978-4.356 5.453-.174 10.853-.012 16.266 1.086 9.744 1.977 19.073 5.474 28.641 8.155.894-2.594-.869-3.139-1.886-3.836-25.481-17.455-50.544-35.544-77.212-51.206-5.565-3.268-5.636-3.248-9.401 2.211-3.709 5.377-9.006 8.925-14.278 12.469-3.117 2.095-5.443 4.358-6.258 8.371-1.973 9.714-8.518 15.797-17.241 19.691-5.5 2.455-9.873 5.001-9.657 12.405.172 5.9-3.964 9.816-9.541 12.04-5 1.994-9.436 5.738-10.358 8.09-.738 1.882-4.164 5.843-6.939 7.069s-4.913 3.619-8.512 7.372c-3.852 4.017-9.429 5.42-14.774 6.503-8.639 1.75-17.315 2.242-26.187 1.092-17.179-2.225-33.076 1.777-47.324 11.655-11.929 8.269-23.401 17.2-38.126 25.182 5.999-.148 9.236-2.007 12.602-3.3 32.081-12.317 64.871-22.216 99.364-23.925 39.141-1.939 77.247 4.551 114.197 17.615 2.542.899 4.973 2.259 7.247 3.728 2.682 1.732 4.461 4.234 3.72 7.643-.738 3.391-3.399 5.074-6.512 5.537-3.572.531-7.239.658-10.859.6-16.086-.256-32.045-2.25-47.916-4.537-56.83-8.192-112.933-5.495-168.403 9.722-10.504 2.881-21.15 5.245-31.494 8.711-2.52.844-5.268 1.212-7.225 3.257.552 1.069 1.478 1.024 2.242.905 29.141-4.559 57.275 1.303 85.298 8.244 5.875 1.455 11.707 3.086 17.555 4.647 3.191.852 5.743 2.614 5.651 6.155-.104 4.009-3.125 5.791-6.649 6.225-4.196.516-8.454.672-12.688.706-25.758.209-51.475-1.152-77.208-1.989-21.922-.713-43.574 1.116-64.47 8.47-1.136.399-2.343.62-3.533.834-1.541.277-3.243.233-4.104-1.143-.891-1.422-.011-2.922.93-4.147 2.305-2.999 5.624-4.538 8.961-5.988 11.786-5.119 24.307-7.3 36.912-9.111 21.128-3.035 42.303-2.015 63.481-.688 2.966.186 5.941.801 10.006-.396-10.244-3.958-20.047-5.49-29.891-6.262-11.164-.875-22.579.152-33.532-1.716-10.407-1.775-18.801 2.023-27.731 5.455-20.51 7.883-39.299 18.58-56.38 32.521-7.706 6.289-16.514 11.233-24.851 16.743-2.829 1.87-6.11 2.546-9.36 3.32-13.543 3.225-27.086 6.451-40.602 9.79-9.561 2.361-9.938 2.938-10.014 12.83-.126 16.356-.088 32.715-.434 49.067-.122 5.791 1.315 9.349 7.343 11.636 12.581 4.774 13.126 6.707 11.797 20.62-1.181 12.358-1.722 24.776-2.899 37.134-1.087 11.414-1.288 11.494-12.676 14.122-25.142 5.802-49.173 14.928-73.146 24.246-5.355 2.082-10.712 4.182-16.156 6.01-12.217 4.1-23.467 1.565-33.257-6.296-3.53-2.834-6.786-3.417-10.821-2.901-31.537 4.034-63.349 5.489-94.828 10.133-5.968.88-12.071.87-18.118 1.148-1.117.052-2.544-.115-2.85-1.645-.384-1.92 1.118-2.769 2.454-3.241 2.845-1.007 5.777-1.798 8.714-2.506 24.767-5.975 49.936-9.525 75.187-12.668 10.504-1.307 20.942-3.192 31.375-5.016 6.303-1.102 11.144-.602 16.007 5.054 5.813 6.761 13.961 10.529 23.577 7.097 4.558-1.627 9.24-2.931 13.731-4.721 24.574-9.793 50.079-16.199 76.061-20.762 4.904-.861 6.473-2.735 6.232-7.705-.528-10.883-.551-21.797-.502-32.698.025-5.474-1.548-9.281-7.324-10.821-13.026-3.475-17.056-13.277-17.513-25.501-.66-17.613 1.084-35.11 2.583-52.611 2.249-26.25 4.506-52.503 7.147-78.715 1.344-13.341-2.033-24.369-12.467-33.258-5.292-4.509-10.041-9.695-15.862-13.562-19.166-12.732-38.268-25.571-58.15-37.185-.783-.457-1.659-.761-2.416-1.254-6.044-3.93-11.199-3.786-18.125-.085-19.732 10.546-39.978 20.273-62.295 24.506-11.018 2.09-21.008 7.702-32.182 9.41-13.374 2.045-26.514 2.18-39.359-2.864-9.104-3.575-18.734-4.709-28.36-5.935-5.942-.757-11.811-2.09-18.029-3.222-2.023 9.861-.275 19.01 1.962 28.118.359 1.463.961 2.872 1.514 4.28 1.419 3.615.627 6.621-2.706 8.62-3.569 2.141-6.364.352-8.774-2.287-2.041-2.235-3.788-4.777-6.01-6.804-13.308-12.142-24.028-26.25-33.775-41.391-6.325-9.825-16.896-15.436-27.434-20.178-4.487-2.019-9.56-1.102-14.32.084-22.213 5.533-43.384 13.285-61.513 27.926-9.2 7.43-19.237 13.692-29.565 19.47-5.614 3.14-11.528 5.465-17.923 6.113-6.745.683-10.606-2.257-11.038-9.02-.6-9.394-2.103-18.648-3.283-27.956-.227-1.788-.151-3.624-.104-5.435.034-1.319.783-2.409 2.044-2.635 1.215-.217 2.46.344 3.018 1.546 1.141 2.461 2.39 4.915 3.151 7.503 2.214 7.53 4.209 15.125 6.377 23.01 3.958-.109 6.528-2.791 9.282-4.926 8.857-6.867 17.622-13.853 26.436-20.776 9.663-7.59 19.76-14.53 30.651-21.229-4.088 0-8.176-.047-12.263.008-14.39.194-28.285-2.563-41.937-6.877-7.273-2.298-13.366-5.854-15.321-13.928-.662-2.734-2.197-4.021-5.041-4.21-25.214-1.681-49.223-9.892-74.039-13.738-46.748-7.245-91.649-2.405-134.267 19.508-32.701 16.814-63.765 36.062-92.66 58.816-5.09 4.008-9.922 8.479-16.401 11.655-.705-4.765 1.655-7.787 3.538-10.681 8.495-13.047 14.499-27.234 19.72-41.803 1.968-5.49 5.129-10.262 8.606-14.879 1.578-2.096 3.727-3.857 4.636-6.931-1.248 0-2.141-.145-2.972.022-9.481 1.9-11.759.538-13.463-8.93-2.458-13.659-.924-25.786 12.17-34.25 7.012-4.532 6.648-5.094 3.343-12.322q-6.33-13.841 1.255-27.293c3.41-6.07 6.729-12.192 10.052-18.311.276-.508.267-1.169.515-2.35-8.429-4.368-17.452-7.737-26.506-10.876-22.359-7.75-43.975-17.156-65.015-27.953-12.673-6.504-25.017-13.454-36.666-21.762-12.837-9.156-26.692-16.759-41.567-22.155-11.575-4.199-17.857-12.103-21.118-23.961-8.264-30.047-9.256-60.335-5.033-90.98.265-1.925-.412-4.353 1.957-5.609zm721.124 229.967c2.732 10.475 4.933 14.507 11.669 20.278 12.881 11.033 26.084 21.696 38.809 32.903 5.528 4.868 11.595 7.624 18.774 8.012 10.035.543 19.739 2.759 29.499 4.968 8.587 1.943 17.255 2.399 26.011-.277 9.034-2.76 18.432-3.751 27.864-2.365 6.247.918 11.856-.257 17.533-2.95 9.318-4.42 18.429-9.115 27.015-14.868 23.19-15.536 47.329-29.372 73.205-39.995 2.58-1.059 4.7-2.674 6.934-4.23 25.496-17.749 47.476-39.445 69.121-61.514 21.647-22.072 43.295-44.154 59.03-71.127a15349.898 15349.898 0 0 0 35.097-60.477c1.812-3.14 3.243-6.499 4.874-9.745 3.127-6.227 3.814-12.523 1.638-19.326-4.517-14.123-8.226-28.518-13.118-42.504-4.261-12.181-6.468-24.582-6.515-37.35-.065-17.389-4.807-33.454-12.673-48.749-6.365-12.377-13.013-24.614-19.093-37.128-2.193-4.515-4.414-4.484-8.498-2.766-11.434 4.809-22.995 9.336-34.62 13.668-26.498 9.875-50.008 24.18-69.514 44.955-10.153 10.814-21.135 20.831-32.342 30.585-5.477 4.767-10.592 9.959-15.755 15.075-6.106 6.051-6.086 6.136-.094 12.828 4.04 4.513 8.282 8.847 12.279 13.396 7.681 8.742 7.614 8.756 16.654 1.156 21.041-17.689 44.146-31.882 70.154-41.075 3.111-1.1 6.394-2.049 9.655-2.287 2.798-.204 5.335 1.336 6.34 4.27.975 2.844.224 5.39-2.042 7.396-2.317 2.052-5.21 3.032-8.02 4.147-16.379 6.5-31.569 15.218-46.739 24.128-29.33 17.225-44.008 45.182-55.346 75.219-5.961 15.792-9.298 32.577-14.809 48.617-4.93 14.349-10.451 28.418-19.067 41.064-1.101 1.616-3.307 2.862-2.24 5.938 6.492 3.06 13.483 5.979 19.733 10.226 11.269 7.656 22.389 15.503 35.167 20.646 3.049 1.227 6.165 3.322 6.778 7.394-3.387.935-6.07-.133-8.426-1.192-11.306-5.082-22.971-9.516-33.318-16.489-11.704-7.888-24.374-13.39-38.162-16.318-9.17-1.947-18.383-3.692-27.531-5.735-14.164-3.163-28.274-6.567-42.437-9.736-5.673-1.27-7.993.327-8.597 6.04-.696 6.581.746 12.484 5.747 17.419 9.815 9.686 21.287 15.45 35.033 17.568 20.009 3.083 36.029 13.45 48.669 29.122 4.214 5.226 5.512 11.344 4.938 17.934-.365 4.185-1.733 8.29-6.141 9.062-4.654.816-5.48-3.67-6.84-6.98-2.76-6.718-5.253-13.573-8.444-20.082-7.683-15.671-32.413-26.102-50.587-12.59-11.849 8.809-22.059 19.186-29.636 31.621-8.386 13.762-20.35 19.097-35.646 19.185-6.966.04-13.934.172-20.894.452-2.263.091-4.803-.625-7.251 1.655 3.114 4.129 7.165 6.547 12.001 7.09 10.082 1.134 19.335 4.811 28.622 8.498 3.091 1.228 6.238 2.315 9.343 3.509 3.896 1.498 7.607 1.344 11.366-.654 12.984-6.9 27.13-8.777 41.445-7.832 10.293.679 17.453-3.034 23.243-11.021 2.834-3.91 6.096-7.527 9.359-11.099 1.22-1.335 3.105-2.125 4.957-1.152 2.487 1.306 2.028 3.72 1.176 5.574-4.066 8.854-8.871 17.159-16.74 23.399-6.068 4.812-13.036 4.156-19.954 4.225-11.561.115-23.43.196-33.842 5.32-10.698 5.265-20.266 4.165-30.376-.497-8.258-3.808-16.754-7.456-25.776-8.528-8.259-.981-14.925-4.374-21.235-9.345-8.099-6.379-16.927-11.607-27.415-16.557zm176.251 121.025c4.057 4.085 9.09 6.865 13.96 9.806 13.217 7.98 26.7 15.534 39.757 23.764 13.904 8.763 22.094 21.07 22.375 38.163.244 14.871-.416 29.657-1.871 44.445-.685 6.968 1.189 8.688 7.959 8.799 3.167.052 5.888-.836 8.42-2.759 10.802-8.202 23.079-13.184 36.206-16.173 29.695-6.762 57.763-18.041 84.753-31.807 21.555-10.994 42.454-23.282 63.545-35.171 5.261-2.965 10.267-6.431 15.176-9.963 27.804-20.009 54.59-41.325 79.562-64.767 9.719-9.124 20.856-14.212 33.501-16.906 1.637-.348 3.524-1.35 4.564 1.483-2.641 2.529-6.229 3.368-9.425 4.909-4.639 2.236-9.353 4.359-12.927 8.257-13.152 14.346-28.204 26.55-43.387 38.616-2.506 1.991-5.556 3.544-8.033 8.375 12.854-4.369 24.618-2.566 36.27-3.168 5.099-.263 10.153-1.591 15.203-2.561 2.696-.518 6.006-1.223 7.23-3.412 2.854-5.106 7.015-8.114 12.191-10.215 1.175-.477 1.823-1.574 1.579-2.928-.298-1.654-1.607-1.497-2.802-1.402-2.106.168-4.206.474-6.315.549-1.541.055-3.257-.257-3.503-2.084-.217-1.61.97-2.836 2.373-3.518 1.622-.789 3.334-1.416 5.049-1.987 5.744-1.911 11.514-3.774 17.539-4.56 2.179-.284 4.228-.7 5.709-2.376 1.251-1.416 1.976-3.251 1.171-5.032-1.036-2.291-2.986-1.291-4.691-.792-4.933 1.443-9.837 3.004-14.816 4.269-1.993.507-4.548.897-5.591-1.561-1.315-3.1 1.303-4.3 3.452-5.347 5.761-2.808 11.985-4.238 18.202-5.519 9.06-1.867 17.094-5.997 24.87-10.731 3.41-2.076 6.219-4.767 8.452-10.303-8.588 3.68-15.209 6.578-21.877 9.361q-14.122 5.895-20.239 4.447c2.656-2.947 6.003-4.327 9.196-5.921 9.478-4.734 18.966-9.45 28.445-14.182 6.808-3.398 13.063-7.62 18.721-12.707 5.125-4.608 5.701-7.41 2.363-13.507-5.53-10.099-14.787-15.611-24.891-20.226-7.796-3.561-14.807-.488-21.963 1.762-3.166.995-6.213 2.39-9.269 3.71-5.825 2.514-11.662 2.762-17.689.66-16.919-5.903-34.794-7.957-51.968-12.742-11.81-3.29-21.762-.717-31.847 5.515-14.751 9.115-28.061 20.074-41.655 30.696-11.45 8.946-22.643 18.214-34.962 26.021-8.187 5.188-16.579 6.33-26.024 4.254-32.806-7.21-65.629-14.377-99.068-18.198-13.721-1.568-27.192-1.48-40.152 4.088-20.582 8.842-37.689 21.583-48.341 41.965-5.615 10.744-11.609 21.365-23.34 26.918-.462.219-.672.969-1.146 1.695zm-6.027-219.369c6.265 1.428 11.623 2.307 16.753 3.914 5.109 1.6 7.885-.34 10.174-4.665a174.206 174.206 0 0 0 11.383-26.672c6.484-19.532 11.589-39.443 16.551-59.404 4.075-16.394 6.702-33.312 15.409-48.203 2.997-5.127-1.584-6.905-3.617-9.866-2.397-3.491-5.008-2.138-7.791-.417-9.783 6.053-19.635 12.354-30.458 16.001-9.635 3.247-14.011 8.915-15.704 18.442-.907 5.104-.961 9.224 2.354 13.46 2.395 3.061 4.051 6.721 5.898 10.187 3.72 6.982 4.142 13.79 1.545 21.686-7.083 21.537-14.191 43.061-22.496 65.537zm-40.937 44.364c-10.973-5.175-19.986-11.097-27.426-19.149-2.407-2.605-4.17-1.132-5.99.811-3.946 4.214-8.449 7.735-13.18 11.062-12.308 8.655-26.46 11.617-40.911 13.691-5.252.754-9.912 2.375-13.726 6.264-8.059 8.216-16.024 16.513-23.227 25.502-1.316 1.643-2.445 3.455-3.501 5.282-1.055 1.824-.939 3.646 1.29 4.414 10.72 3.697 20.795 9.133 33.183 5.887 11.05-2.895 22.641-3.869 34.052-5.188 7.427-.859 13.105-3.697 17.23-10.132 10.371-16.18 22.601-30.494 42.207-38.442zm531.463 221.953c-29.558-17.684-123.517-21.05-151.054-6.104 49.977-6.736 99.447.678 151.054 6.104zM522.27 112.43c-20.368-6.27-22.858-20.693-21.75-36.846.508-7.401 3.123-14.01 8.002-19.856 7.745-9.281 15.296-18.74 22.562-28.4 6.026-8.011 13.401-13.789 22.969-16.945 18.449-6.085 36.871-12.067 56.762-9.948 7.803.831 15.945.543 21.35 7.824 1.05 1.415 2.553 1.177 4.06 1.353 15.675 1.829 25.661 11.727 32.466 24.742 3.699 7.075 2.764 15.32.082 23.023-.88 2.528-3.018 4.531-3.137 7.982 4.739 3.137 11.34 3.654 15.175 8.836 4.125 5.574 1.429 10.852-.871 16.524 15.105 5.04 29.318 8.911 45.505 6.662 12.575-1.747 26.178.517 33.76 13.996.738 1.313 1.82 2.43 2.583 3.732 9.228 15.748 22.096 26.846 39.603 32.858 9.372 3.218 14.974 9.878 13.338 20.899-.769 5.183 1 10.116 3.027 14.948 5.169 12.322 4.173 17.274-6.068 25.193-5.172 3.999-6.054 10.28-10.162 15.912-2.718-5.042-.82-9.015.845-12.861 1.535-3.547 1.206-5.808-3.135-6.327-3.071-.368-6.153-1.361-8.313-3.393-6.992-6.579-15.18-6.5-23.778-5.1-2.662.433-5.358.659-7.968.971-.613 3.172 1.816 3.819 3.464 4.805 3.643 2.18 7.484 4.347 11.67 4.872 12.059 1.514 16.218 10.021 19.093 20.151 1.226 4.322.539 7.837-2.798 10.649-8.508 7.169-17.08 14.258-24.345 25.284-.946-8.208 1.981-12.624 5.615-16.701 2.616-2.935 5.717-5.475 8.098-8.577 6.52-8.495 4.067-16.591-6.078-19.681-7.595-2.314-14.949-4.968-21.185-10.007-1.948-1.575-3.626-1.735-5.698-.386-.99.644-2.283.802-3.372 1.319-16.794 7.972-32.947 4.132-48.89-2.721-4.976-2.139-9.61-5.099-14.947-6.249-2.301 1.873-.661 3.968-.562 5.908.455 8.922-3.908 12.208-12.454 9.093-3.684-1.343-7.365-2.889-10.726-4.884-6.362-3.777-13.244-5.896-20.411-7.229-9.306-1.731-18.275-4.306-26.111-9.856-2.956-2.094-6.063-2.353-9.498-1.591-9.204 2.042-16.117 5.969-20.926 15.223-5.497 10.579-8.911 20.086-2.105 31.036 1.081 1.739 1.2 4.05 1.958 6.022 2.016 5.244.636 9.098-3.782 12.691-10.571 8.597-20.536 17.899-30.159 27.556-8.46 8.489-15.157 18.004-18.337 29.798-1.175 4.356-3.139 8.51-4.88 12.699-.69 1.659-1.413 4.118-2.704 4.578-7.817 2.787-5.642 8.551-4.774 14.107a53.39 53.39 0 0 1 .623 8.136c.005 3.321-1.503 5.826-4.81 6.922-.848.281-1.773.347-2.669.461-3.144.399-4.384 5.648-8.566 3.369-3.02-1.646-4.934-4.463-7.003-7.023-3.907-4.833-8.554-8.485-14.434-10.594-4.069-1.46-7.892-2.042-12.325-.635-8.651 2.746-10.711 1.441-13.654-6.713-8.071-22.362-12.231-45.345-13.702-69.16-1.067-17.262 2.231-33.73 5.072-50.288 2.571-14.982 8.775-28.9 18.236-41.146 8.68-11.235 15.993-23.571 26.904-32.992 2.601-2.246 3.689-5.494 5.216-8.44 3.844-7.413 8.745-13.642 16.723-17.219 3.747-1.68 6.923-4.63 12.326-8.365zm146.838 69.021c.259-.157.571-.27.755-.49.089-.107.012-.533-.116-.615-10.277-6.529-11.895-16.737-12.091-27.726-.122-6.802 1.648-13.138 3.386-19.585 1.234-4.577 3.198-9.121 1.36-14.172-3.866-10.622-10.816-14.124-23.542-11.49 11.368 7.906 15.249 13.356 15.858 22.295.378 5.552-1.186 10.78-2.61 16.049-4.767 17.643.296 28.231 17.001 35.734zM634.88 57.358c7.023 1.967 13.04 3.787 19.13 5.318 5.446 1.368 5.99 1.07 7.364-4.622 2.79-11.557 1.637-22.162-7.67-30.844-5.012-4.676-10.112-8.951-17.625-11.026.474 5.268 4.156 5.242 6.521 6.591 11.415 6.508 12.394 16.062 2.503 24.83-3.132 2.776-6.987 4.769-10.223 9.754zm-11.415 28.547c.678-6.216-1.29-8.992-5.74-10.197-3.579-.969-7.177-.934-10.81-.447a96.754 96.754 0 0 0-26.957 7.676c-7.73 3.47-15.579 6.63-24.068 7.907-7.267 1.094-7.248 1.22-5.027 9.31 3.98-.665 7.16-3.108 10.477-5.049 10.508-6.15 22.621-6.243 33.872-9.493 9.291-2.683 18.187-3.972 28.253.293zm-60.211 44.889c-3.182 5.778-3.407 10.356-4.416 14.704-1.018 4.388-1.891 8.846-2.34 13.321-.967 9.617 3.034 15.326 14.414 19.915-8.504-15.066-7.033-30.861-7.658-47.941zM451.676 268.281c1.719-20.159 1.521-40.616 5.273-60.761-7.295 19.686-8.821 39.918-5.273 60.761zm295.172-118.054c.465-3.016-1.388-3.909-2.716-4.853-9.561-6.795-19.094-13.639-28.86-20.132-6.296-4.186-13.809-5.775-22.72-5.616 19.641 7.917 36.944 18.988 54.296 30.601zm-219.32-44.302c-6.39-10.095-13.624-17.535-17.99-29.063-1.682 18.153 2.874 25.634 17.99 29.063zm235.532 25.187c-4.181-6.069-7.803-10.136-10.063-14.856-4.785-9.999-13.736-9.508-22.491-10.034 5.549 3.479 11.76 5.629 17.172 9.364 5.554 3.832 6.389 12.106 15.381 15.526zm37.793 36.819c3.136-9.883-.99-14.429-14.57-17.479 1.981 3.298 5.355 4.79 8.371 6.687 3.671 2.309 3.862 6.592 6.198 10.792zM511.356 535.169c-1.707 6.45-1.378 11.466-1.274 16.466.489 23.359-.016 46.682-4.616 69.672-4.284 21.41-13.671 40.652-26.251 58.393-1.937 2.732-3.97 5.725-7.07 6.911-5.318 2.034-7.035 6.212-8.16 11.095-.335 1.454-.619 3.046-1.423 4.241-2.484 3.692-6.488 3.704-8.8-.063-2.89-4.708-3.847-10.159-5.242-15.419-.333-1.256.116-2.387 1.177-3.183 1.21-.907 2.408-1.842 3.691-2.637 24.566-15.212 37.25-38.276 42.879-65.732 5.07-24.729 5.599-49.879 6.384-75.024.505-16.153-2.166-31.937-3.539-47.88-.285-3.309-1.165-4.719-4.648-5.079-5.914-.611-10.904-3.601-15.081-7.742-4.727-4.686-5.878-10.424-4.071-16.741.31-1.084 1.018-2.2 2.412-2.401 1.573-.226 2.098.94 2.537 2.048 1.713 4.324 4.369 7.908 8.026 10.797 5.289 4.178 10.891 4.827 16.969 1.865 5.154-2.511 7.822-6.529 7.66-12.285-.188-6.675-3.176-11.615-9.431-14.227-3.027-1.264-6.209-2.156-9.407-3.247 8.519-10.898 22.417-8.668 32.94 5.105 2.853-.296 3.329-3.183 5.02-4.738 5.288-4.865 10.099-3.988 12.641 2.766 3.326 8.836 4.242 18.258 5.851 27.499.467 2.684 1.001 5.372 1.219 8.081 1.36 16.864 12.055 25.879 26.793 30.744 5.733 1.892 8.155 4.802 9.536 10.475 2.987 12.271 6.654 24.383 9.366 38.501 3.373-3.996 2.558-7.031 2.691-9.68.435-8.612 2.306-16.806 6.689-24.282 2.743-4.679 4.281-4.986 8.622-1.917 4.824 3.411 8.614 7.564 9.584 13.75 1.439 9.172 6.459 17.627 13.526 21.809 7.01 4.149 13.919 9.588 22.316 11.479 1.767.398 3.469 1.095 5.242 1.458 8.281 1.692 15.065 4.801 14.825 14.948-.013.553.386 1.146.684 1.668.266.465.658.857 1.051 1.351 1.392-3.089-.486-5.967-.429-8.939.119-6.12 1.723-8.915 7.738-10.402 5.698-1.409 8.815-5.124 10.824-10.048 3.429-8.406 6.685-16.885 9.824-25.404 3.053-8.286 2.907-8.042 11.515-6.794 10.569 1.532 21.088 1.848 31.082-3.271 4.675-2.394 5.529-1.801 6.378 3.519.428 2.679.413 5.432.539 8.154.253 5.461.577 10.964 2.563 16.082 3.705 9.549 6.555 18.971-.556 28.615 6.554-4.893 9.53-11.628 11.751-18.614 3.503-11.019 5.194-22.397 5.368-33.981.036-2.418-.007-4.853.266-7.248.256-2.245 1.33-4.104 3.927-4.24 2.874-.15 4.374 1.55 5.185 4.121.8 2.539-.185 5.368 1.48 8.205 3.223-6.833 2.902-13.828 2.989-20.742.046-3.663-.504-8.185 4.51-8.328 4.536-.129 5.684 4.273 5.84 7.899.568 13.254.833 26.523 1.099 39.788.387 19.319-4.632 37.633-9.629 56.109-4.409 16.3-10.548 31.221-21.332 44.424-5.104 6.249-8.291 14.052-12.468 21.079-1.316 2.215-1.94 4.35-1.18 6.88 3.831 12.766 8.676 24.681 22.734 29.677 2.821 1.002 5.448 2.647 8.025 4.224 24.447 14.962 51.414 24.179 78.112 33.9 10.53 3.834 21.12 7.411 31.232 12.272 15.397 7.402 31.382 12.345 48.566 14.004 18.106 1.748 33.129 9.614 45.373 23.861 12.563 14.618 21.754 31.282 32.188 47.211.657 1.003 1.119 2.152 1.548 3.28.626 1.644 1.697 3.585-.435 4.747-1.504.82-2.978-.407-3.969-1.499-2.64-2.91-5.333-5.813-7.62-8.995-10.455-14.549-22.462-27.796-34.306-41.177-9.872-11.153-23.149-15.585-37.279-16.5-18.289-1.184-34.941-6.963-50.967-15.142-18.616-9.502-38.938-15.206-57.047-25.809-1.911-1.119-3.936-1.124-6.116-1.084-3.614.067-7.238-.368-10.855-.618-3.862-.267-8.028-3.259-11.41-.938-3.23 2.216-2.89 7.082-4.264 10.725-3.907 10.364-9.463 19.621-17.474 27.323-1.724 1.658-3.545 3.753-6.209 1.653-2.08-1.639-1.36-3.715-.489-5.76 6.156-14.461 7.278-29.897 8.844-45.263.343-3.365-.021-6.017-3.442-7.466-16.215-6.866-26.944-19.084-33.012-34.349-2.435-1.31-3.323-.188-4.06.592-8.586 9.096-19.626 10.823-31.441 11.7-5.066.376-8.02-5.101-12.274-3.259-4.157 1.8-8.309 2.339-12.372 1.679-6.842-1.112-13.569-3.117-19.656-6.612-3.122-1.793-5.529-3.043-8.298.843-2 2.807-5.289 2.214-8.309.87-5.252-2.337-10.75-4.182-15.822-6.849-11.787-6.199-23.429-12.68-35.04-19.206-9.651-5.425-18.037-12.215-23.165-22.406-.943-1.874-1.793-5.033-5.149-1.965-1.706 1.56-3.304-.365-4.754-1.311-4.933-3.22-8.674-7.558-11.389-12.73-2.67-5.087-5.113-10.292-7.674-15.436-1.011-2.03-1.368-4.558-5.006-3.071-2.73 1.117-4.374-1.522-5.599-3.583-5.096-8.569-10.503-16.907-10.96-27.487-.381-8.827-2.781-17.184-7.764-24.822-4.072-6.241-7.278-13.047-11.598-20.938z"/><path d="M135.459 1866.248c.199 4.383-2.286 7.163-4.084 10.133-9.25 15.28-19.024 30.25-27.136 46.202-1.094 2.152-2.443 4.006-2.088 6.712 1.928 14.687 1.195 29.529 3.184 44.293 1.958 14.527 7.791 25.58 21.203 31.371 12.959 5.595 22.636 14.514 31.304 25.34 10.562 13.192 23.755 23.167 39.672 29.463 12.416 4.911 24.16 11.406 35.309 18.616 20.12 13.012 41.991 14.536 64.669 11.528 16.381-2.173 32.961-3.481 50.965-10.471-5.657 8.142-1.469 12.375 2.241 16.73 2.355 2.764 4.765 5.481 7.141 8.227 2.352 2.719 5.239 3.546 8.872 3.502 36.041-.433 72.098-.164 108.123-1.124 76.004-2.025 150.688-13.109 223.704-34.627 3.331-.982 7.304-.944 9.802-4.217-10.697-3.035-11.816-7.56-3.834-15.318 5.532-5.376 12.364-8.693 19.305-11.729 22.221-9.721 45.464-16.602 68.39-24.35 29.236-9.881 58.849-18.69 87.191-31.078 3.359-1.468 6.708-2.72 10.392-.569 2.27 1.327 4.733.017 7.106-.218 2.495-.247 5.082-.228 6.354 2.324 1.443 2.897-.045 5.306-2.186 7.24-2.019 1.824-4.149 3.535-6.314 5.186-30.137 22.971-63.036 40.772-99.327 51.838-26.386 8.046-51.471 19.569-77.618 28.192-64.679 21.331-130.738 35.444-198.958 39.001-46.317 2.415-92.592 3.174-138.931.997-16.683-.784-32.214-4.683-46.602-13.277-5.958-3.558-12.013-8.3-18.498-9.241-6.114-.888-12.828 2.61-19.316 4.003-24.905 5.348-48.612 3.24-70.912-10.331-12.918-7.861-26.507-14.581-40.402-20.655-16.907-7.39-29.542-20.141-40.08-34.7-6.881-9.507-15.4-15.995-25.883-20.479-3.901-1.669-7.688-3.51-11.122-6.084-6.976-5.228-10.235-11.831-10.891-20.801-1.508-20.623.099-41.142.505-61.704.075-3.807 1.517-7.09 3.289-10.256 8.44-15.071 17.536-29.737 27.665-43.738 1.83-2.53 3.453-5.594 7.796-5.931zm584.992 188.778c23.314 3.209 87.779-20.755 106.897-39.409-36.573 12.982-72.871 22.905-106.897 39.409zM10.559 1265.547c-1.797-5.509-.783-9.349-.303-13.244 6.093-49.434 19.194-97.375 30.932-145.607 4.007-16.465 7.607-33.018 13.207-49.086 4.158-11.931 9.986-22.688 18.51-31.971 4.157-4.528 6.965-9.752 9.388-15.392 11.25-26.194 20.558-53.063 28.514-80.413 13.137-45.165 42.262-77.257 81.611-101.5 36.354-22.398 72.808-44.597 109.834-65.879 17.096-9.826 35.195-17.582 52.399-27.147 22.218-12.352 44.876-23.906 66.7-36.979 2.625-1.572 6.372-5.794 8.519-2.64 2.601 3.821-2.951 5.809-5.484 7.667-13.436 9.86-27.687 18.49-42.221 26.63-9.262 5.187-18.242 10.766-26.788 17.08-9.02 6.663-18.469 12.662-28.515 17.72-4.86 2.447-9.689 5.06-14.186 8.109-32.381 21.961-67.352 39.536-100.962 59.407-17.896 10.58-34.15 22.88-49.534 36.613-10.066 8.986-17.764 19.598-23.973 31.642-8.505 16.498-15.512 33.438-20.288 51.391-2.72 10.223-6.44 20.18-9.676 30.267-.809 2.523-2.403 4.868-1.99 7.758 2.577.038 3.698-1.932 4.996-3.413 20.454-23.355 43.961-43.362 68.27-62.505 5.234-4.121 10.261-8.505 15.44-12.697 1.874-1.517 3.83-2.972 5.904-4.19 2.567-1.507 5.242-1.386 7.666.453 2.46 1.867 2.895 4.503 2.455 7.349-.53 3.435-2.599 6.098-4.673 8.702-6.436 8.077-13.599 15.493-21.38 22.256-17.604 15.3-35.058 30.793-53.112 45.547-19.799 16.179-36.839 35.062-54.397 53.455-6.161 6.454-9.618 14.516-12.719 22.837-14.433 38.728-22.529 79.149-32.055 119.181-5.116 21.498-9.618 43.141-14.547 64.684-1.106 4.835-2.291 9.839-7.542 13.914zm677.996 208.429c-13.69-.767-25.134-.036-36.532 1.243-33.154 3.718-65.625 11.151-98.159 18.248-17.445 3.806-34.949 7.344-52.452 10.879a70.636 70.636 0 0 1-19.894 1.167c-4.518-.375-8.35-2.14-10.118-6.521-1.901-4.711-.499-9.044 3.031-12.454 2.815-2.719 5.902-5.213 9.119-7.448 11.463-7.963 23.717-14.6 36.088-21.012 50.294-26.069 99.856-53.455 147.646-83.893 41.488-26.425 79.801-57.021 115.708-90.631 9.348-8.75 16.126-19.65 24.428-29.275 2.964-3.437 5.95-6.864 9.091-10.137 1.136-1.184 2.412-2.854 4.511-1.79.936 1.375 0 2.325-.618 3.276-1.814 2.794-3.985 5.398-5.489 8.345-16.173 31.686-42.359 54.308-69.784 75.341-32.909 25.239-66.415 49.707-101.017 72.676-26.063 17.3-53.776 31.576-81.032 46.69-20.959 11.622-40.536 25.352-60.81 38.01-.402.251-.502.987-.811 1.644 2.665 1.314 5.209.158 7.73-.358 32.324-6.602 64.596-13.471 96.976-19.782 24.979-4.868 50.122-8.784 75.71-8.393 4.231.065 8.459-.032 12.57 1.417 9.299 3.276 12.385 10.601 7.928 19.428-2.641 5.231-6.686 9.389-11.156 13.033-7.04 5.738-14.296 11.21-21.456 16.801-1.671 1.305-3.411 2.537-4.967 3.969-3.95 3.636-3.933 4.657.375 7.484 5.922 3.887 12.635 5.712 19.483 7.176 4.679.999 9.588 1.403 14.071 4.742-2.72 3.439-6.47 3.454-9.811 3.407-10.402-.146-20.492-2.078-29.771-7.039-11.919-6.372-13.507-14.812-4.637-24.891 6.236-7.086 13.983-12.502 21.14-18.57 4.05-3.435 8.511-6.496 12.911-12.782z"/><path d="M641.095 1881.887c-29.947 22.701-60.291 44.61-93.872 61.576-.791.4-1.76.49-2.556-.301.131-2.135 2.013-2.858 3.39-3.885 4.613-3.438 9.199-6.934 14.004-10.089 25.863-16.981 50.521-35.55 74.133-55.542 6.694-5.668 13.819-10.837 20.854-16.09 2.549-1.904 5.556-2.884 8.255-.281 2.343 2.26 1.535 4.983.412 7.597-2.657 6.189-6.692 11.509-10.732 16.803-21.005 27.524-44.294 52.974-69.744 76.441-33.211 30.623-67.623 59.792-104.344 86.171-5.093 3.659-10.384 7.141-15.444 12.432 3.004 1.539 5.275.868 7.451.499 20.718-3.509 40.51-10.261 59.834-18.188 73.879-30.305 144.256-67.323 211.026-111.157 11.936-7.836 22.62-17.27 33.66-26.253 2.572-2.092 5.332-3.978 8.139-5.748 1.968-1.241 4.125-1.102 5.859.579 2.077 2.014 2.053 4.672.398 6.583-2.556 2.95-5.534 5.602-8.619 8.015-18.131 14.183-36.472 28.088-54.173 42.827-23.745 19.77-47.841 39.119-72.494 57.756-9.149 6.916-18.494 13.573-29.396 18.437 2.18-5.653 2.39-6.003 10.977-13.586 4.767-4.209 9.662-8.276 14.558-12.336 4.663-3.867 9.412-7.632 14.107-11.461 4.584-3.739 9.149-7.501 13.355-11.783-3.611-.036-6.221 1.997-9.018 3.5-46.157 24.804-92.699 48.802-141.927 67.095-17.326 6.438-34.898 12.094-53.319 14.583-4.818.651-9.658 1.213-14.425-.194-6.661-1.966-8.511-6.733-4.653-12.504 3.413-5.106 8.382-8.72 13.189-12.394 20.458-15.636 40.868-31.325 60.591-47.896 37.62-31.608 74.227-64.247 105.422-102.456 2.072-2.538 4.71-4.715 5.101-8.748zM768.3 815.456c-3.628 5.309-7.765 10.265-6.554 17.541.45 2.703.443 5.456-.382 8.103-1.901 6.099-6.685 9.945-13.388 10.202-34.193 1.31-67.721-2.006-99.718-15.13-22.394-9.185-44.68-18.64-66.235-29.682-3.604-1.847-6.784-2.609-10.115-.372-5.581 3.748-10.912 2.34-16.281-.314-2.168-1.072-4.461-1.978-6.44-3.335-27.251-18.675-57.006-33.182-84.794-50.967-6.412-4.104-12.346-8.523-17.366-14.382-3.905-4.558-8.867-8.205-13.313-12.309-1.541-1.423-3.127-2.865-4.343-4.55-.897-1.243-.842-2.897.226-4.225 1.12-1.392 2.598-1.335 4.1-.769 2.327.876 4.087 2.557 5.818 4.254 13.494 13.221 28.568 24.221 45.346 32.971 17.23 8.986 32.903 20.412 48.463 31.954 8.83 6.55 18.195 11.954 28.77 15.108 2.025.604 4.075 1.194 6.156 1.51.711.108 1.836-.44 2.274-1.047.845-1.171.162-2.376-.872-3.071a33.973 33.973 0 0 0-4.745-2.632c-11.322-5.2-21.789-11.774-31.912-19.028-8.109-5.811-16.454-11.362-25.071-16.382-17.381-10.125-30.271-24.917-42.935-40.021-.194-.232-.407-.457-.557-.716-1.284-2.223-4.362-4.695-1.441-7.023 2.957-2.357 4.734 1.205 6.43 3.036 34.548 37.296 76.294 64.081 122.693 84.053 16.95 7.296 34.038 14.27 50.963 21.62 17.313 7.519 35.342 13.312 53.876 15.655 26.906 3.402 51.091-3.549 69.173-25.498 2.718-3.299 4.558-7.125 6-11.135.992-2.759 2.628-4.391 5.771-4.989 6.068-1.154 8.335.296 7.201 6.237-2.131 11.159-8.4 20.637-13.419 30.601-.547 1.085-1.866 1.585-3.143 1.122-1.676-.608-2.349-2.155-1.95-3.65.697-2.615 1.893-5.093 2.762-7.668.525-1.556 2.1-3.286-1.05-5.072zm662.732 1217.333c-2.99 7.308-7.868 10.926-12.704 14.464-11.995 8.773-24.793 16.298-37.844 23.348-11.978 6.471-24.154 12.583-36.335 18.669-11.913 5.953-24.045 11.502-35.19 18.858-7.827 5.166-15.599 6.024-24.838 3.232-18.038-5.453-35.371-12.373-52.086-20.976-5.918-3.046-11.814-6.144-17.825-8.997-6.048-2.871-7.487-2.22-10.244 4.076-.727 1.659-1.397 3.37-1.846 5.121-1.844 7.198-6.848 10.301-13.844 11.005-11.138 1.12-22.277 2.245-33.405 3.458-8.72.95-17.296 2.411-25.829 4.74-10.349 2.825-21.096 1.286-31.618.188-30.442-3.178-60.457-8.904-90.255-15.803-6.488-1.502-12.976-3.101-18.854-6.381-1.706-.952-4.415-1.623-3.564-4.401.641-2.093 2.937-1.815 4.692-1.858 3.947-.098 7.822.472 11.709 1.23 24.946 4.862 49.888 9.751 74.881 14.363 19.046 3.515 37.947 6.668 57.483 1.322 11.868-3.248 24.472-3.866 36.771-5.464 9.413-1.223 16.494-5.486 20.581-14.314 1.009-2.18 2.368-4.24 3.818-6.165 6.895-9.152 14.128-10.887 24.447-5.939 7.396 3.547 14.163 8.132 20.931 12.723 12.784 8.673 25.82 16.881 40.046 23.108 5.235 2.291 9.209 2.117 14.104-1.397 11.581-8.315 24.545-14.343 37.449-20.337 32.108-14.914 64.509-29.224 95.295-46.829.702-.401 1.617-.431 4.074-1.042zM664.497 515.924c-1.205-.092-2.423-.097-3.609-.291-4.851-.795-4.296-1.427-3.355-6.611 1.063-5.854 4.57-7.902 9.277-9.693 3.003-1.143 6.402-2.123 4.347-7.039-1.233-2.949 1.544-4.905 3.831-6.471 10.467-7.168 20.996-14.245 31.401-21.501 3.666-2.556 7.38-2.543 11.149-.847 7.261 3.266 14.654 3.072 22.165 1.302 4.938-1.164 9.58-.77 13.791 2.339 9.493 7.008 18.433 14.67 26.597 23.18 3.509 3.657 3.136 9.645-.753 14.226-2.965 3.492-6.698 3.608-10.598 1.29-1.815-1.079-3.865-1.794-5.583-2.995-7.199-5.032-14.521-8.064-23.486-4.222-4.333 1.857-9.113.822-12.978-1.889-3.132-2.197-5.921-2.058-9.322-.943-5.222 1.711-9.97 4.216-14.653 7.022-11.793 7.068-24.389 11.909-38.223 13.144zm561.768 1525.261c8.864-7.303 16.523-14.059 24.635-20.218 29.974-22.76 56.263-49.559 83.33-75.511 13.756-13.189 27.55-26.339 41.218-39.618 9.775-9.496 19.229-19.292 26.067-31.256.597-1.045 1.279-2.066 2.067-2.973 1.955-2.25 4.448-3.321 7.292-2.12 3.308 1.396 4.172 4.348 3.404 7.548-.626 2.609-1.67 5.178-2.91 7.566-2.941 5.664-6.892 10.658-10.992 15.519a281.935 281.935 0 0 1-22.474 23.69c-33.511 31.49-67.523 62.414-103.353 91.283-12.551 10.112-26.093 18.575-40.749 25.263-1.367.624-2.764 1.206-4.198 1.641-.471.143-1.102-.241-3.337-.815zm-290.853-788.129c-2.926-9.089-1.439-16.556.011-23.841 4.082-20.515 9.292-40.81 17.046-60.227 7.072-17.708 7.028-35.299 2.943-53.453-6.782-30.133-14.652-59.971-23.47-89.567-2.833-9.508-5.367-19.093-6.447-29.788 3.469 2.84 3.848 6.33 5.004 9.337 6.083 15.823 11.784 31.797 18.071 47.537 8.909 22.305 14.92 45.414 20.016 68.807.193.888.302 1.795.517 2.676 7.4 30.298 7.483 21.439-4.041 50.411-7.616 19.149-14.225 38.622-19.994 58.403-1.912 6.557-3.537 13.4-9.655 19.704zm-487.962 527.66c-6.473 1.795-11.52-.529-16.543-2.491-13.815-5.395-27.024-12.125-40.299-18.694-25.915-12.824-26.618-12.903-53.809-2.08-21.644 8.615-42.441 19.115-63.672 28.649-3.307 1.485-6.669 2.854-10.053 4.156-1.47.566-3.193.517-4.098-.885-.929-1.438-.206-2.957 1.057-3.981 1.64-1.329 3.306-2.667 5.118-3.736 25.801-15.224 52.272-29.113 79.817-40.979 14.833-6.39 28.794-5.382 42.494 2.709 16.924 9.995 33.939 19.82 51.462 28.749 3.577 1.822 7.356 3.848 8.527 8.583z"/><path d="m711.718 757.3-6.468 19.26 1.659.691c5.148-8.944 10.07-18.024 13.223-27.972 2.464-7.774 4.555-15.667 6.985-23.452.894-2.866 2.141-5.648 3.491-8.336 1.214-2.418 3.402-3.632 6.04-2.582 2.645 1.053 3.188 3.487 2.695 6.066-.396 2.073-.88 4.162-1.621 6.132-5.122 13.601-8.64 27.684-12.587 41.636-3.004 10.617-8.403 20.022-14.48 29.104-2.504 3.742-5.86 6.073-10.392 6.466-7.312.634-11.645-3.846-10.25-11.074.899-4.661 1.985-9.163 5.258-13.253 3.916-4.894 6.416-10.905 9.692-16.334 1.499-2.484 2.505-5.434 6.757-6.352zM451.94 377.208c3.985 8.048 5.298 15.119 6.434 22.191 1.216 7.571 3.277 14.439 8.872 20.311 3.656 3.837 5.783 9.131 8.6 13.77 5.645 9.295 12.485 17.073 24.021 18.86 1.839.285 3.795.59 3.822 2.954.023 2.033-1.531 3.171-3.202 3.992-2.529 1.244-5.231 1.462-7.954.927-8.316-1.635-15.319-5.235-19.818-12.873-5.018-8.518-8.083-18.218-15.409-25.368-.995-.971-1.458-2.66-1.797-4.103-2.833-12.042-3.959-24.328-5.032-36.614-.068-.783.56-1.627 1.464-4.048zm312.082 133.661c-8.609 2.395-17.191 4.89-25.843 7.117-2.333.601-5.064.335-7.012-1.142-6.06-4.592-12.501-3.2-18.998-1.675-5.019 1.178-10.066 2.155-15.239 1.618-1.701-.177-3.873-.423-3.71-2.96.114-1.772 1.573-2.344 3.148-2.68 7.973-1.703 15.922-3.52 23.912-5.136 2.958-.598 6.233-1.131 8.822.739 5.16 3.727 10.783 2.944 16.559 2.764 5.901-.184 11.776-2.286 17.713-.907l.649 2.261zM479.375 376.457c4.345 6.587 8.438 13.147 15.726 16.848 1.905.967 2.725 3.413 2.855 5.457.306 4.806.251 9.644.156 14.465-.047 2.366-1.475 3.965-3.842 4.351-2.013.328-3.248-1.062-4.568-2.383-5.187-5.191-.387-13.7-6.776-18.839-4.799-3.86-5.178-8.602-3.551-19.898z"/></svg></g><g transform="translate(2143.2 1518.0) rotate(0.0 273.0 603.5999999999999) scale(1.3026984467826213 1.2253959037751572)"><svg width="419.13" height="985.151" viewBox="0 0 419.13 985.151"><path d="M291.305 871.965c-10.58 0-21.159.015-31.739-.009-3.329-.007-6.658-.118-9.988-.178-3.655-.066-5.597-1.708-5.43-5.58.52-12.093.916-24.191 1.481-36.282.193-4.142 3.578-3.391 6.128-3.401 17.256-.072 34.512-.332 51.761.661 27.945 1.609 55.285 6.257 81.794 15.458 7.466 2.591 14.73 5.605 21.406 9.803 9.248 5.814 9.909 13.233 2.085 20.796-3.768 3.643-8.452 5.756-13.212 7.785-13.804 5.884-28.547 7.896-43.139 10.355-44.58 7.511-89.5 11.293-134.713 10.634-53.268-.776-105.505-8.46-156.336-24.774-5.181-1.663-10.24-3.707-15.351-5.589-1.171-.431-2.275-1.091-2.434-2.422-.219-1.827 1.159-2.667 2.564-3.247 4.377-1.807 8.969-1.271 13.453-.795 16.854 1.789 33.723 3.507 50.526 5.707 46.059 6.031 92.303 7.77 138.663 5.779 14.155-.608 28.382-1.316 42.48-4.702zm61.357 71.001c-20.84 4.076-39.823 7.756-59.076 9.742-24.792 2.558-49.551 3.056-74.267-.885-3.605-.575-7.189-1.202-10.398-3.013-2.816-1.589-4.544-4.007-4.477-7.37.075-3.756 2.119-6.225 5.482-7.602 3.403-1.393 7.026-1.707 10.663-2.024 39.536-3.45 78.9-8.032 117.54-17.538 4.515-1.111 8.416-2.422 11.58-6.31 3.087-3.794 8.103-5.159 12.578-6.991 14.552-5.959 29.726-10.372 43.716-17.747 3.695-1.947 7.628-2.163 10.94 1.072 2.829 2.763 2.968 7.15.106 11.707-4.711 7.503-10.521 14.044-17.843 19.15-2.704 1.885-5.376 3.814-8.633 6.128 3.256 3.551 6.795 6.713 5.93 11.729-.89 5.163-4.388 8.503-8.314 11.472-6.309 4.772-13.213 8.578-20.362 11.883-73.132 33.802-138.926 35.666-225.727 16.819-31.433-6.999-41.378-14.176-40.447-17.424 4.724.489 27.735 8.644 62.622 13.357 62.035 6.852 117.531 1.798 174.258-19.236 4.21-1.561 8.688-2.637 14.129-6.919zm-82.516-353.364c-.38 41.257-5.151 82.144-10.273 122.992-3.014 24.04-4.327 48.225-6.637 72.322-.865 9.026-2.296 18.001-3.63 26.975-.398 2.675-1.16 5.335-2.085 7.882-1.144 3.148-2.475 6.65-6.832 5.784-3.824-.76-4.04-4.219-3.983-7.227.138-7.258.508-14.515.895-21.766 2.392-44.783 8.884-89.087 15.237-133.429 4.08-28.475 5.348-57.236 6.294-85.986.438-13.308 1.207-26.605 1.82-39.908.11-2.396.815-4.797-.078-7.189-.797-2.137-1.186-4.465 1.544-5.244 2.868-.82 5.739.138 6.643 3.161.851 2.842 1.027 5.963 1.042 8.964.089 17.556.043 35.114.043 52.671zM97.45 261.696c1.092-2.45 3.164-1.862 4.835-1.851 16.664.109 33.242 1.004 49.592 4.678 25.139 5.649 40.159 20.861 44.96 46.294 2.261 11.981 3.069 24.039 2.54 36.145-.845 19.345-2.094 38.674-3.28 58.002-.837 13.639-.944 27.254 1.961 40.671 4.854 22.421 17.05 33.179 39.873 35.585 3.907.412 7.817.797 11.718 1.252.556.065 1.072.464 2.394 1.067-8.742 1.932-16.753 3.014-25.067 1.908-18.775-2.496-30.803-12.992-36.84-30.642-4.683-13.69-5.225-27.926-4.628-42.177.887-21.162 2.289-42.303 3.272-63.461.549-11.816-.359-23.545-2.427-35.238-3.508-19.834-14.939-32.435-33.752-38.977-14.943-5.196-30.409-7.927-45.933-10.483-3.189-.525-6.547-.489-9.217-2.773zM100.657 0c32.795 19.693 57.178 45.365 64.188 83.713 5.092 27.852-3.206 51.493-26.572 68.867-8.823 6.56-18.613 11.279-28.678 15.538-11.427 4.836-22.84 9.71-34.195 14.714-7.436 3.277-12.936 8.782-17.291 15.588-8.615 13.462-6.25 27.107 6.672 36.624 3.155 2.324 6.747 4.045 10.069 6.152 1.475.936 3.504 1.867 3.071 3.994-.479 2.356-2.781 2.033-4.473 1.898-12.927-1.032-23.262-6.686-29.748-18.078-6.129-10.764-5.046-21.343 1.722-31.709 5.645-8.646 12.883-15.309 22.303-19.372 11.948-5.154 24.022-10.021 36.1-14.867 7.318-2.936 14.446-6.208 21.351-10.035 31.833-17.646 37.202-48.778 30.632-74.575-6.069-23.831-19.248-43.607-37.137-60.294-4.427-4.13-9.201-7.885-13.7-11.941-1.694-1.527-4.078-2.646-4.314-6.216zm15.323 815.616c3.938 0 7.876.05 11.813-.017 2.672-.045 4.997.351 4.958 3.701-.036 3.013-2.518 2.995-4.571 3.174-11.463 1-22.952 1.756-34.298 3.81-20.924 3.789-41.461 8.77-60.403 18.929-7.276 3.902-14.333 8.239-19.266 14.862-2.703 3.63-4.691 4.975-8.679 2.444-4.287-2.72-5.774-5.669-4.468-9.755.774-2.423 2.425-4.171 4.397-5.632 4.385-3.247 8.939-6.188 13.914-8.52 20.434-9.58 41.837-15.832 64.114-19.31 10.783-1.683 21.547-3.379 32.489-3.685zm70.297-.599c-13.49 4.539-27.372 4.164-41.056 5.606-1.689.178-2.946-.367-2.948-2.371-.002-1.8.964-2.766 2.696-2.877 2.703-.172 5.412-.334 8.119-.343 11.063-.038 22.127-.016 33.19-.016zm74.831-315.247c0-1.483-.185-2.996.041-4.444.405-2.596 1.768-4.586 4.707-4.134 2.729.419 4.198 2.506 3.869 5.141-.472 3.791-1.395 7.531-2.247 11.265-.279 1.224-1.258 1.989-2.59 1.989-1.339 0-2.15-.877-2.712-1.965-1.278-2.474-1.073-5.192-1.069-7.851zM86.446 950.589c2.247 1.157.895 4.584-1.533 3.883-52.283-15.098-98.739-58.9-81.106-77.904 4.995-5.349 6.298 13.82 16.322 23.44 18.784 26.336 47.913 41.102 66.317 50.581z"/><path d="M60.793 847.783c16.17-5.843 32.75-9.162 49.397-12.127 32.888-5.857 66.152-7.181 99.455-7.964a706.287 706.287 0 0 0 21.775-.863c3.729-.203 5.857.763 5.147 5.039a3436.66 3436.66 0 0 0-5.484 34.056c-.557 3.582-2.39 5.147-6.075 5.243-10.013.26-19.975-.528-29.939-1.215-3.843-.264-7.248-2.122-8.631-5.763-1.663-4.378-5.007-4.656-8.727-4.936-6.036-.453-12.063-1.044-18.094-1.573-5.021-.44-10.141.221-14.22-4.318-1.972-2.194-5.78-1.203-8.764-1.212-22.419-.068-44.786-1.473-67.168-2.508-2.91-.135-5.936.14-8.674-1.86z"/></svg></g></svg>